/vscmnt/brussel_pixiu_data/_data_brussel/112/vsc11236/PredSimResults/SUBJ07opt3D/expIG/worker_09.mot
version=1
nRows=8
nColumns=50
inDegrees=yes
endheader
                time	         pelvis_tilt	         pelvis_list	     pelvis_rotation	           pelvis_tx	           pelvis_ty	           pelvis_tz	       hip_flexion_r	     hip_adduction_r	      hip_rotation_r	        knee_angle_r	       ankle_angle_r	         mtp_angle_r	       hip_flexion_l	     hip_adduction_l	      hip_rotation_l	        knee_angle_l	       ankle_angle_l	         mtp_angle_l	    lumbar_extension	      lumbar_bending	     lumbar_rotation	 ercspn_r/activation	 intobl_r/activation	 extobl_r/activation	    abd_r/activation	    add_r/activation	hamstrings_r/activation	bifemsh_r/activation	glut_max_r/activation	iliopsoas_r/activation	rect_fem_r/activation	  vasti_r/activation	gastroc_r/activation	 soleus_r/activation	tib_ant_r/activation	 ercspn_l/activation	 intobl_l/activation	 extobl_l/activation	    abd_l/activation	    add_l/activation	hamstrings_l/activation	bifemsh_l/activation	glut_max_l/activation	iliopsoas_l/activation	rect_fem_l/activation	  vasti_l/activation	gastroc_l/activation	 soleus_l/activation	tib_ant_l/activation	
          0.50947961	         -5.31689681	          0.95657916	         -8.50964095	          0.71327145	          0.84543466	          0.01035840	        -12.56574901	         -0.99907411	          2.83815795	        -13.44440755	          6.10703750	         32.97802122	         31.77050474	         -1.93373178	         -4.19561667	         -6.68380939	          3.65772806	          0.29020068	        -13.27992835	          0.22497704	          2.28857154	          0.10027008	          0.01000000	          0.01000001	          0.02004946	          0.03163750	          0.01574175	          0.02627488	          0.01600917	          0.01000049	          0.10634984	          0.02562875	          0.23575979	          0.25040123	          0.01169831	          0.13115704	          0.13073479	          0.01000003	          0.02645657	          0.13466261	          0.09196932	          0.17144957	          0.06931505	          0.04869878	          0.01000005	          0.01000000	          0.01000001	          0.00999999	          0.48434949	
          0.51966920	         -5.27832465	          0.89586427	         -8.55054761	          0.73048783	          0.84374568	          0.00990162	        -13.80115708	         -1.14381388	          2.57671451	        -13.19536040	          4.64642276	         34.13371523	         31.66164655	         -1.76979114	         -4.04677318	         -8.48477348	          3.20227836	          0.27921040	        -13.07276842	         -0.02897353	          2.49336439	          0.11790130	          0.01000000	          0.01000005	          0.01713883	          0.05744600	          0.01470574	          0.09163691	          0.01368509	          0.03437259	          0.09091078	          0.02190817	          0.20153398	          0.22602795	          0.01000004	          0.11211669	          0.11175588	          0.01000002	          0.02261581	          0.13942048	          0.07861792	          0.14655986	          0.13477125	          0.04162907	          0.01000008	          0.01000002	          0.01456054	          0.01246053	          0.48131110	
          0.52985879	         -5.23746978	          0.82649783	         -8.54624934	          0.74772279	          0.84213896	          0.00940635	        -14.82228521	         -1.25516895	          2.28076368	        -13.35655888	          3.22302642	         35.08248996	         31.51254230	         -1.65479606	         -3.85045009	        -10.37547819	          2.77405184	          0.26602482	        -12.88217883	         -0.28341706	          2.68101408	          0.13889431	          0.01000000	          0.01000003	          0.01465075	          0.06187189	          0.01532284	          0.07833414	          0.01169840	          0.12771305	          0.07771305	          0.01872771	          0.17227681	          0.20124011	          0.00999999	          0.12434461	          0.09553203	          0.01000001	          0.10562020	          0.16783462	          0.07001223	          0.12528348	          0.15939053	          0.03558568	          0.01000001	          0.00999999	          0.01244676	          0.01065160	          0.59609024	
          0.54004838	         -5.19734280	          0.74125315	         -8.49772032	          0.76477424	          0.84079902	          0.00883896	        -15.52318279	         -1.32459472	          1.96585542	        -14.08399375	          1.85418625	         35.74866593	         31.36210160	         -1.55050879	         -3.68127739	        -12.21071222	          2.25597932	          0.24154403	        -12.73161426	         -0.52495524	          2.84912429	          0.17669674	          0.01000000	          0.01000003	          0.01252387	          0.07546132	          0.01645738	          0.06696233	          0.01000013	          0.19726380	          0.06643127	          0.01600896	          0.14726697	          0.17202563	          0.01000000	          0.14909847	          0.08166342	          0.01000001	          0.16460901	          0.20434325	          0.05984845	          0.10709580	          0.20776326	          0.03041962	          0.01000002	          0.01000000	          0.01063984	          0.01000000	          0.63200482	
          0.55023797	         -5.15759289	          0.64739374	         -8.41024803	          0.78149997	          0.83989187	          0.00821177	        -15.81944675	         -1.35987791	          1.63966158	        -15.50342328	          0.55523159	         36.03271365	         31.26935122	         -1.44857873	         -3.52878765	        -14.15784632	          2.01687199	          0.21155663	        -12.63149422	         -0.76201380	          2.99528270	          0.22828449	          0.01000000	          0.01000002	          0.01070575	          0.08608209	          0.01762965	          0.05724144	          0.01000001	          0.25474348	          0.05678729	          0.01368491	          0.12588787	          0.14705225	          0.01000000	          0.16337325	          0.06980814	          0.01000000	          0.21545428	          0.23417938	          0.05116012	          0.09154845	          0.25244663	          0.02600353	          0.01000003	          0.01115131	          0.01000003	          0.01000001	          0.61177834	
          0.56042757	         -5.11789522	          0.55226506	         -8.28564276	          0.79779544	          0.83957825	          0.00753600	        -15.64420293	         -1.37048921	          1.30706889	        -17.70454893	         -0.70874957	         35.84468866	         31.26040366	         -1.34561186	         -3.39196720	        -16.26677182	          2.17408207	          0.18440860	        -12.58541500	         -1.00035451	          3.11664903	          0.27426834	          0.01000000	          0.01000002	          0.01000000	          0.11334444	          0.01822807	          0.05377865	          0.01000000	          0.21776182	          0.04854335	          0.01169824	          0.10761242	          0.12570433	          0.01000000	          0.18761636	          0.05967393	          0.01000000	          0.23898734	          0.25993271	          0.04373311	          0.07825816	          0.27769797	          0.02222854	          0.01000003	          0.03164334	          0.01000001	          0.01000000	          0.55665334	
          0.57061716	         -5.07825949	          0.45365460	         -8.12369920	          0.81369384	          0.83991267	          0.00683011	        -14.99012952	         -1.35746541	          0.97230961	        -20.65870187	         -2.08710912	         35.19409015	         31.25745282	         -1.23844739	         -3.26320482	        -18.37987331	          2.63994785	          0.16783633	        -12.57742127	         -1.23419860	          3.21101637	          0.29610847	          0.01000000	          0.01000001	          0.01000000	          0.13633280	          0.01911967	          0.06443301	          0.01000000	          0.18614882	          0.04149620	          0.01000000	          0.09199007	          0.10745553	          0.01000000	          0.18892573	          0.05101092	          0.01000000	          0.24252890	          0.27208358	          0.03738430	          0.06689725	          0.28315433	          0.01900157	          0.01000004	          0.05311738	          0.01000001	          0.01000000	          0.47584264	
          0.58080675	         -5.04013025	          0.35034623	         -7.92519789	          0.82926182	          0.84084870	          0.00610224	        -13.88063877	         -1.32523467	          0.64881657	        -24.26849199	         -3.74115927	         34.08150693	         31.16112961	         -1.12020119	         -3.12224707	        -20.31953768	          3.40837792	          0.18608799	        -12.58953614	         -1.45715703	          3.27895998	          0.31177182	          0.01000000	          0.01000001	          0.00999999	          0.14952059	          0.01682458	          0.05687713	          0.01000000	          0.15912516	          0.03547211	          0.00999999	          0.07863565	          0.09185595	          0.00999999	          0.16149895	          0.04360555	          0.01000000	          0.23991521	          0.27107408	          0.03195739	          0.05718563	          0.26865723	          0.01624307	          0.01000013	          0.09295565	          0.01000004	          0.01000001	          0.40676342	
